<?xml version="1.0" encoding="utf-8"?>
<!DOCTYPE svg PUBLIC "-//W3C//DTD SVG 1.1//EN" "http://www.w3.org/Graphics/SVG/1.1/DTD/svg11.dtd">
<svg version="1.1" id="Layer_1" xmlns="http://www.w3.org/2000/svg" xmlns:xlink="http://www.w3.org/1999/xlink" x="0px" y="0px"
	 width="180px" height="180px" viewBox="0 0 180 180" enable-background="new 0 0 180 180" xml:space="preserve">
<rect fill="#904849" width="180" height="180"/>
<path fill="#FFFFFF" d="M151,110.4c-1-6.8-4.5-12.4-13.8-15.7c-1.2-0.4-8.7-3.2-18.7-6.8c-0.9-15.1-13.4-27.2-28.7-27.2
	c-8.3,0-15.7,3.5-20.9,9.1c-6.3-2.3-10.6-3.9-11.3-4.1c-2.9-1.1-4-3-1.5-6.7c4.3-6.4,17.5-15.3,33.2-15.3c12.5,0,24.9,3.9,36.3,19.5
	l21.5-7.8c-17.6-27.8-43.5-32.4-58-32.4c-11.8,0-24.6,3.8-35.2,10.5C43,40,30.8,54.9,30.8,67.8c0,7.8,4.1,14,15,18
	c1.6,0.6,7.4,2.7,15.1,5.5c0.9,15.1,13.4,27,28.7,27c8.2,0,15.6-3.5,20.9-9c5.8,2.1,9.9,3.6,10.7,3.9c3.5,1.3,4.8,2.8,2.6,6.7
	c-4.2,7.5-17.2,15.3-34.9,15.3c-15.4,0-28.5-5.8-35.4-21.7l-24.7,9.1c7.7,15.1,29.5,36.2,59.9,36.2c34.1,0,52.3-22.2,56.4-27.9
	C148.8,125.8,152,117.2,151,110.4z M107.2,107c-0.3,0.3-0.6,0.5-0.9,0.8c-4.4,4-10.2,6.5-16.6,6.5c-6.8,0-13-2.8-17.5-7.2
	c-3.7-3.7-6.3-8.7-7-14.2c0-0.3-0.1-0.5-0.1-0.8C65,91.1,65,90.3,65,89.5c0-0.5,0-0.9,0.1-1.4l44.4,16.2c-0.7,0.9-1.4,1.8-2.2,2.6
	C107.2,106.8,107.2,106.9,107.2,107z M72.2,72c0.2-0.2,0.5-0.5,0.8-0.7c4.4-4.1,10.2-6.5,16.7-6.5c6.8,0,13,2.8,17.5,7.2
	c3.8,3.8,6.3,8.7,7,14.3c0,0.3,0.1,0.7,0.1,1c0.1,0.7,0.1,1.4,0.1,2.2c0,0.7,0,1.4-0.1,2L69.5,75.2C70.3,74.1,71.2,73,72.2,72
	C72.2,72,72.2,72,72.2,72z"/>
</svg>
