<?xml version="1.0" encoding="utf-8"?>
<!-- Generator: Adobe Illustrator 15.0.2, SVG Export Plug-In . SVG Version: 6.00 Build 0)  -->
<!DOCTYPE svg PUBLIC "-//W3C//DTD SVG 1.1//EN" "http://www.w3.org/Graphics/SVG/1.1/DTD/svg11.dtd">
<svg version="1.1" id="Layer_1" xmlns="http://www.w3.org/2000/svg" xmlns:xlink="http://www.w3.org/1999/xlink" x="0px" y="0px"
	 width="57.669px" height="66.75px" viewBox="-1.542 -2.75 57.669 66.75" enable-background="new -1.542 -2.75 57.669 66.75"
	 xml:space="preserve">
<line fill="none" stroke="#646464" stroke-width="3" stroke-miterlimit="10" x1="9.621" y1="11.685" x2="23.137" y2="25.202"/>
<line fill="none" stroke="#646464" stroke-width="3" stroke-miterlimit="10" x1="22.068" y1="24.764" x2="28.293" y2="24.764"/>
<line fill="none" stroke="#646464" stroke-width="3" stroke-miterlimit="10" x1="28.463" y1="9.377" x2="28.463" y2="24.795"/>
<line fill="none" stroke="#646464" stroke-width="3" stroke-miterlimit="10" x1="36.467" y1="32.91" x2="44.607" y2="24.607"/>
<line fill="none" stroke="#646464" stroke-width="3" stroke-miterlimit="10" x1="36.467" y1="32.908" x2="36.467" y2="45.634"/>
<line fill="none" stroke="#646464" stroke-width="3" stroke-miterlimit="10" x1="28.322" y1="24.764" x2="36.467" y2="32.908"/>
<line fill="none" stroke="#646464" stroke-width="3" stroke-miterlimit="10" x1="36.025" y1="44.592" x2="43.625" y2="52.193"/>
<line fill="none" stroke="#646464" stroke-width="3" stroke-miterlimit="10" x1="22.172" y1="35.417" x2="22.172" y2="42.312"/>
<line fill="none" stroke="#646464" stroke-width="3" stroke-miterlimit="10" x1="22.086" y1="42.084" x2="29.596" y2="49.592"/>
<line fill="none" stroke="#646464" stroke-width="3" stroke-miterlimit="10" x1="15.747" y1="29.646" x2="22.579" y2="36.479"/>
<line fill="none" stroke="#646464" stroke-width="3" stroke-miterlimit="10" x1="10.208" y1="42.259" x2="22.042" y2="42.259"/>
<g>
	<path fill="none" stroke="#646464" stroke-width="2" stroke-miterlimit="10" d="M55.127,60.859c0,1.178-0.963,2.141-2.141,2.141
		H1.599c-1.178,0-2.141-0.963-2.141-2.141V0.391c0-1.177,0.963-2.141,2.141-2.141h51.387c1.178,0,2.141,0.963,2.141,2.141V60.859z"
		/>
</g>
<circle fill="none" stroke="#646464" stroke-width="3" stroke-miterlimit="10" cx="7.538" cy="42.259" r="3.083"/>
<circle fill="none" stroke="#646464" stroke-width="3" stroke-miterlimit="10" cx="14.092" cy="28.285" r="3.083"/>
<circle fill="none" stroke="#646464" stroke-width="3" stroke-miterlimit="10" cx="30.861" cy="50.954" r="3.083"/>
<circle fill="none" stroke="#646464" stroke-width="3" stroke-miterlimit="10" cx="46.038" cy="54.037" r="3.084"/>
<circle fill="none" stroke="#646464" stroke-width="3" stroke-miterlimit="10" cx="46.709" cy="22.581" r="3.083"/>
<circle fill="none" stroke="#646464" stroke-width="3" stroke-miterlimit="10" cx="28.464" cy="6.293" r="3.083"/>
<circle fill="none" stroke="#646464" stroke-width="3" stroke-miterlimit="10" cx="8.562" cy="10.054" r="3.083"/>
</svg>
